<svg xmlns="http://www.w3.org/2000/svg" width="34.033" height="35.982" viewBox="0 0 34.033 35.982">
  <path id="Icon_simple-gatsby" data-name="Icon simple-gatsby" d="M17.028.01C7.557.01.01,7.989.01,18S7.557,35.993,17.026,35.993,34.044,28.014,34.044,18,26.5.01,17.028.01ZM3.709,18.157,16.88,32.082c-7.252,0-13.171-6.258-13.171-13.924ZM19.987,31.768,4.006,14.873A13.523,13.523,0,0,1,17.026,3.921a13.224,13.224,0,0,1,10.8,5.79L25.907,11.43A10.637,10.637,0,0,0,6.669,14.089L20.579,28.8a10.959,10.959,0,0,0,6.807-8.136H21.615V18h8.731A13.957,13.957,0,0,1,19.987,31.769Z" transform="translate(-0.01 -0.01)" fill="#9b9b9b"/>
</svg>
