<svg xmlns="http://www.w3.org/2000/svg" width="34.051" height="36" viewBox="0 0 34.051 36">
  <path id="Icon_simple-javascript" data-name="Icon simple-javascript" d="M0,0H34.051V36H0ZM31.262,27.414C31.014,25.771,30,24.391,27,23.1c-1.044-.517-2.2-.878-2.55-1.71a1.867,1.867,0,0,1-.065-1.058,1.6,1.6,0,0,1,2.15-.99,2.36,2.36,0,0,1,1.385,1.35c1.467-1.014,1.467-1.014,2.49-1.687a6.168,6.168,0,0,0-.831-1.17,4.63,4.63,0,0,0-4.021-1.551l-1,.133a4.531,4.531,0,0,0-2.426,1.507,4.885,4.885,0,0,0,.807,6.706c1.937,1.53,4.769,1.866,5.13,3.307.341,1.755-1.234,2.318-2.789,2.115a3.767,3.767,0,0,1-2.49-2l-2.6,1.576a6.063,6.063,0,0,0,1.149,1.663c2.469,2.634,8.641,2.5,9.749-1.506a5.354,5.354,0,0,0,.1-2.475l.065.1ZM18.517,16.546H15.327c0,2.907-.013,5.8-.013,8.708,0,1.848.089,3.545-.2,4.066a1.751,1.751,0,0,1-2.222.72,2.827,2.827,0,0,1-1.178-1.282,1.294,1.294,0,0,0-.18-.294L8.95,30.151a5.227,5.227,0,0,0,1.879,2.275,5.948,5.948,0,0,0,4.55.607,4.028,4.028,0,0,0,2.569-2.117c.724-1.4.57-3.1.563-5.019.017-3.081,0-6.163,0-9.269l.006-.084Z" fill="#9b9b9b"/>
</svg>
