<svg xmlns="http://www.w3.org/2000/svg" width="34.05" height="35.998" viewBox="0 0 34.05 35.998">
  <path id="Icon_simple-next-dot-js" data-name="Icon simple-next-dot-js" d="M25.273,33.753c-.126.07-.119.1.007.032a.323.323,0,0,0,.1-.07c0-.024,0-.021-.106.039Zm.253-.141c-.06.049-.06.053.013.014a.2.2,0,0,0,.074-.053C25.612,33.544,25.6,33.552,25.526,33.612Zm.166-.106c-.06.049-.06.053.013.014a.2.2,0,0,0,.074-.053C25.778,33.438,25.761,33.445,25.692,33.506Zm.166-.1c-.06.049-.06.053.013.014a.2.2,0,0,0,.074-.053C25.944,33.333,25.927,33.34,25.858,33.4Zm.23-.158c-.116.078-.153.131-.05.07.074-.045.193-.141.173-.144a.652.652,0,0,0-.123.073ZM15.911.009c-.074.008-.306.032-.516.049A16.893,16.893,0,0,0,3.16,7.518,18.4,18.4,0,0,0,.155,15.382,14.577,14.577,0,0,0,0,18a14.587,14.587,0,0,0,.153,2.622A17.83,17.83,0,0,0,11.8,35.169a17.145,17.145,0,0,0,3.594.787,29.576,29.576,0,0,0,3.262,0,16.5,16.5,0,0,0,6.134-1.9c.292-.159.349-.2.309-.236q-1.4-1.955-2.772-3.93L19.6,26.007,16.193,20.67q-1.7-2.679-3.435-5.334c-.013,0-.027,2.368-.033,5.263-.01,5.07-.013,5.274-.074,5.394a.622.622,0,0,1-.292.32c-.106.057-.2.067-.7.067h-.576l-.153-.1a.651.651,0,0,1-.223-.257l-.07-.159.007-7.055.01-7.057.1-.137A.917.917,0,0,1,11,11.4c.136-.071.19-.078.766-.078.68,0,.792.028.969.233q2.071,3.259,4.107,6.542c2.21,3.543,5.231,8.38,6.717,10.756l2.7,4.317.136-.095a17.85,17.85,0,0,0,3.5-3.245,18.387,18.387,0,0,0,4.007-9.2,14.577,14.577,0,0,0,.153-2.622,14.587,14.587,0,0,0-.153-2.622A17.83,17.83,0,0,0,22.253.843,16.975,16.975,0,0,0,18.709.058c-.319-.034-2.52-.073-2.8-.045ZM22.88,10.9a.7.7,0,0,1,.336.415c.027.092.033,2.047.027,6.456l-.01,6.327-1.056-1.71-1.058-1.71v-4.6c0-2.973.013-4.644.033-4.725a.721.721,0,0,1,.329-.444c.136-.073.186-.081.709-.081C22.683,10.825,22.769,10.833,22.88,10.9Z" transform="translate(-0.002 -0.004)" fill="#9b9b9b"/>
</svg>
