<svg xmlns="http://www.w3.org/2000/svg" width="32.987" height="34.004" viewBox="0 0 32.987 34.004">
  <path id="Icon_awesome-github" data-name="Icon awesome-github" d="M11.033,27.942c0,.141-.153.253-.346.253-.219.021-.372-.091-.372-.253,0-.141.153-.253.346-.253C10.861,27.668,11.033,27.78,11.033,27.942Zm-2.068-.316c-.047.141.086.3.286.345a.3.3,0,0,0,.412-.141c.04-.141-.086-.3-.286-.366A.334.334,0,0,0,8.965,27.626Zm2.94-.12c-.193.049-.326.183-.306.345.02.141.193.232.392.183s.326-.183.306-.323S12.1,27.485,11.9,27.506ZM16.281.563C7.056.563,0,7.966,0,17.719c0,7.8,4.642,14.47,11.273,16.819a.858.858,0,0,0,1.151-.851c0-.436-.02-2.841-.02-4.317,0,0-4.655,1.055-5.633-2.1,0,0-.758-2.046-1.849-2.573,0,0-1.523-1.1.106-1.083A3.482,3.482,0,0,1,7.6,25.432a3.411,3.411,0,0,0,4.848,1.47,4,4,0,0,1,1.064-2.37c-3.718-.436-7.469-1.005-7.469-7.77a5.488,5.488,0,0,1,1.57-4.141,7,7,0,0,1,.173-4.774c1.39-.457,4.589,1.9,4.589,1.9a14.893,14.893,0,0,1,8.353,0s3.2-2.363,4.589-1.9a7,7,0,0,1,.173,4.774A5.61,5.61,0,0,1,27.2,16.762c0,6.785-3.917,7.327-7.635,7.77A4.287,4.287,0,0,1,20.7,27.795c0,2.37-.02,5.3-.02,5.878a.86.86,0,0,0,1.151.851c6.651-2.334,11.16-9.007,11.16-16.8A16.763,16.763,0,0,0,16.281.563ZM6.464,24.813c-.086.07-.067.232.047.366.106.112.259.162.346.07.086-.07.067-.232-.047-.366C6.7,24.771,6.551,24.722,6.464,24.813Zm-.718-.57c-.047.091.02.2.153.274a.192.192,0,0,0,.286-.049c.047-.091-.02-.2-.153-.274C5.9,24.152,5.793,24.173,5.746,24.244Zm2.155,2.5c-.106.091-.067.3.086.436.153.162.346.183.432.07.086-.091.047-.3-.086-.436C8.187,26.655,7.987,26.634,7.9,26.747Zm-.758-1.034c-.106.07-.106.253,0,.415s.286.232.372.162a.334.334,0,0,0,0-.436C7.422,25.692,7.249,25.622,7.143,25.713Z" transform="translate(0 -0.563)" fill="#f8f8f8"/>
</svg>
